# xmcd
#
# Track frame offsets: 
#        150
#        28582
#        70845
#        101415
#        138045
#        189330
#
# Disc length: 2763 seconds
#
# Revision: 2
# Processed by: cddbd v1.5.2PL0 Copyright (c) Steve Scherf et al.
# Submitted via: ExactAudioCopy v0.95b4
#
DISCID=440ac906
DTITLE=Hampton Hawes - For Real!
DYEAR=1958
DGENRE=Jazz
TTITLE0=Hip
TTITLE1=Wrap Your Troubles In Dreams
TTITLE2=Crazeology (Little Bennie)
TTITLE3=Numbers Game
TTITLE4=For Real
TTITLE5=I Love You
EXTD=YEAR: 1958
EXTT0=
EXTT1=
EXTT2=
EXTT3=
EXTT4=
EXTT5=
PLAYORDER=
